<?xml version="1.0" encoding="utf-8"?>
<!-- Generator: Adobe Illustrator 25.1.0, SVG Export Plug-In . SVG Version: 6.00 Build 0)  -->
<svg version="1.1"
	 id="svg3072" sodipodi:docname="New document 5" xmlns:cc="http://creativecommons.org/ns#" xmlns:dc="http://purl.org/dc/elements/1.1/" xmlns:inkscape="http://www.inkscape.org/namespaces/inkscape" xmlns:rdf="http://www.w3.org/1999/02/22-rdf-syntax-ns#" xmlns:sodipodi="http://sodipodi.sourceforge.net/DTD/sodipodi-0.dtd" xmlns:svg="http://www.w3.org/2000/svg"
	 xmlns="http://www.w3.org/2000/svg" xmlns:xlink="http://www.w3.org/1999/xlink" x="0px" y="0px" width="600px" height="600px"
	 viewBox="0 0 600 600" style="enable-background:new 0 0 600 600;" xml:space="preserve">
<style type="text/css">
	.st0{fill:#333232;}
	.st1{fill:#FFF6E9;}
	.st2{fill:none;stroke:#FFF6E9;stroke-width:9;stroke-miterlimit:10;}
	.st3{fill:none;stroke:#FFF6E9;stroke-width:9;stroke-linecap:square;stroke-miterlimit:10;}
	.st4{opacity:0.2;fill:none;stroke:#FFF6E9;stroke-width:9;stroke-miterlimit:10;enable-background:new    ;}
	
		.st5{opacity:0.15;fill:none;stroke:#FFF6E9;stroke-width:9;stroke-linecap:square;stroke-miterlimit:10;enable-background:new    ;}
	.st6{opacity:0.15;fill:none;stroke:#FFF6E9;stroke-width:9;stroke-miterlimit:10;enable-background:new    ;}
</style>
<rect class="st0" width="600" height="600"/>
<sodipodi:namedview  bordercolor="#666666" borderopacity="1.0" id="base" inkscape:current-layer="layer1" inkscape:cx="101.4089" inkscape:cy="98.461398" inkscape:document-units="px" inkscape:pageopacity="0.0" inkscape:pageshadow="2" inkscape:window-height="837" inkscape:window-maximized="1" inkscape:window-width="1600" inkscape:window-x="-8" inkscape:window-y="-8" inkscape:zoom="2.5908834" pagecolor="#ffffff" showgrid="false">
	</sodipodi:namedview>
<g>
	<g>
		<path class="st1" d="M157.2,440.6h3.6v31.6h18.5l-0.6,3.2h-21.4V440.6z"/>
		<path class="st1" d="M214.3,457.7c0,9.4-5.2,18.1-16.1,18.1c-10,0-15.8-7.9-15.8-17.9c0-9.9,5.7-17.8,16.1-17.8
			C208.3,439.9,214.3,447.4,214.3,457.7z M186.5,457.7c0,7.8,4.2,14.8,12.1,14.8c8.6,0,12.2-7.1,12.2-14.8c0-7.8-4.1-14.6-12-14.6
			C190,443.1,186.5,450,186.5,457.7z"/>
		<path class="st1" d="M249.3,475.2h-2.8c-0.2-0.4-0.3-2.2-0.5-5.2c-1.3,2.4-4.2,5.6-11.1,5.6c-10.1,0-15.2-7.7-15.2-17.6
			c0-10.4,5.5-18.1,15.9-18.1c7.8,0,12.8,4.2,13.8,10.5H246c-1.3-4.5-4.5-7.4-10.3-7.4c-8.4,0-12,6.6-12,15
			c0,7.6,3.6,14.6,11.7,14.6c8.2,0,10.5-5.4,10.5-12.3v-0.4h-10.6v-3.2h13.9v18.6H249.3z"/>
		<path class="st1" d="M261.3,440.6v34.8h-3.6v-34.8H261.3z"/>
		<path class="st1" d="M271.8,465.8c1,4.3,3.9,6.9,9.5,6.9c6,0,8.2-2.9,8.2-6.5c0-3.8-1.8-6-9-7.8c-7.8-2-10.8-4.5-10.8-9.5
			c0-4.8,3.6-9.1,11.1-9.1c8,0,11.2,4.6,11.7,9.1h-3.6c-0.8-3.4-3-6-8.2-6c-4.7,0-7.2,2.1-7.2,5.7c0,3.6,2.1,4.9,8.4,6.4
			c9.9,2.4,11.4,6.3,11.4,10.7c0,5.4-3.9,9.8-12.2,9.8c-8.7,0-12.1-4.9-12.9-9.9h3.6V465.8z"/>
		<path class="st1" d="M304,440.6v34.8h-3.6v-34.8H304z"/>
		<path class="st1" d="M343.3,459.8c0-6.6,0-13.2,0.2-16.8l0,0c-1.5,5.1-7.8,21.3-12,32.2h-3.3c-3.2-8.7-9.8-26.7-11.4-32.2h-0.3
			c0.3,4.1,0.3,11.9,0.3,17.9v14.4h-3.3v-34.8h5.2c4.3,11.4,9.9,26.2,11.1,30.4h0.2c0.8-2.9,7.2-19.4,11.7-30.4h5.2v34.8h-3.5v-15.4
			H343.3z"/>
	</g>
</g>
<path class="st2" d="M447,269.4L447,269.4"/>
<path class="st2" d="M297.8,120.3"/>
<path class="st3" d="M148.5,120.3v298.3h149.2"/>
<path class="st4" d="M447,269.4c0,82.3-66.8,149.2-149.2,149.2"/>
<path class="st5" d="M447,269.4c0-82.4-66.8-149.3-149.2-149.3H148.5"/>
<path class="st2" d="M297.8,120.3c82.3,0,149.2,66.7,149.2,149.2s-66.8,149.3-149.2,149.3"/>
<path class="st6" d="M297.8,418.7c-82.3,0-149.2-66.8-149.2-149.2s66.8-149.3,149.2-149.3"/>
</svg>
