<?xml version="1.0" encoding="utf-8"?>
<!-- Generator: Adobe Illustrator 25.1.0, SVG Export Plug-In . SVG Version: 6.00 Build 0)  -->
<svg version="1.1"
	 id="svg3072" sodipodi:docname="New document 5" xmlns:cc="http://creativecommons.org/ns#" xmlns:dc="http://purl.org/dc/elements/1.1/" xmlns:inkscape="http://www.inkscape.org/namespaces/inkscape" xmlns:rdf="http://www.w3.org/1999/02/22-rdf-syntax-ns#" xmlns:sodipodi="http://sodipodi.sourceforge.net/DTD/sodipodi-0.dtd" xmlns:svg="http://www.w3.org/2000/svg"
	 xmlns="http://www.w3.org/2000/svg" xmlns:xlink="http://www.w3.org/1999/xlink" x="0px" y="0px" viewBox="0 0 400 400"
	 style="enable-background:new 0 0 400 400;" xml:space="preserve">
<style type="text/css">
	.st0{fill:#333232;}
	.st1{fill:#FFF6E9;}
	.st2{fill:none;stroke:#FFF6E9;stroke-width:6;stroke-miterlimit:10;}
	.st3{fill:none;stroke:#FFF6E9;stroke-width:6;stroke-linecap:square;stroke-miterlimit:10;}
	.st4{opacity:0.2;fill:none;stroke:#FFF6E9;stroke-width:6;stroke-miterlimit:10;}
	.st5{opacity:0.15;fill:none;stroke:#FFF6E9;stroke-width:6;stroke-linecap:square;stroke-miterlimit:10;}
	.st6{opacity:0.15;fill:none;stroke:#FFF6E9;stroke-width:6;stroke-miterlimit:10;}
</style>
<rect x="0" y="0" class="st0" width="400" height="400"/>
<sodipodi:namedview  bordercolor="#666666" borderopacity="1.0" id="base" inkscape:current-layer="layer1" inkscape:cx="101.4089" inkscape:cy="98.461398" inkscape:document-units="px" inkscape:pageopacity="0.0" inkscape:pageshadow="2" inkscape:window-height="837" inkscape:window-maximized="1" inkscape:window-width="1600" inkscape:window-x="-8" inkscape:window-y="-8" inkscape:zoom="2.5908834" pagecolor="#ffffff" showgrid="false">
	</sodipodi:namedview>
<g>
	<g>
		<path class="st1" d="M104.8,293.7h2.4v21.1h12.3l-0.4,2.1h-14.3V293.7z"/>
		<path class="st1" d="M142.9,305.1c0,6.3-3.5,12.1-10.7,12.1c-6.7,0-10.5-5.3-10.5-11.9c0-6.6,3.8-11.9,10.7-11.9
			C138.9,293.3,142.9,298.3,142.9,305.1z M124.3,305.1c0,5.2,2.8,9.9,8.1,9.9c5.7,0,8.1-4.7,8.1-9.9c0-5.2-2.7-9.7-8-9.7
			C126.7,295.4,124.3,300,124.3,305.1z"/>
		<path class="st1" d="M166.2,316.8h-1.9c-0.1-0.3-0.2-1.5-0.3-3.5c-0.9,1.6-2.8,3.7-7.4,3.7c-6.7,0-10.1-5.1-10.1-11.7
			c0-6.9,3.7-12.1,10.6-12.1c5.2,0,8.5,2.8,9.2,7H164c-0.9-3-3-4.9-6.9-4.9c-5.6,0-8,4.4-8,10c0,5.1,2.4,9.7,7.8,9.7
			c5.5,0,7-3.6,7-8.2v-0.3h-7.1v-2.1h9.3V316.8z"/>
		<path class="st1" d="M174.2,293.7v23.2h-2.4v-23.2H174.2z"/>
		<path class="st1" d="M181.2,310.5c0.7,2.9,2.6,4.6,6.3,4.6c4,0,5.5-1.9,5.5-4.3c0-2.5-1.2-4-6-5.2c-5.2-1.3-7.2-3-7.2-6.3
			c0-3.2,2.4-6.1,7.4-6.1c5.3,0,7.5,3.1,7.8,6.1h-2.4c-0.5-2.3-2-4-5.5-4c-3.1,0-4.8,1.4-4.8,3.8c0,2.4,1.4,3.3,5.6,4.3
			c6.6,1.6,7.6,4.2,7.6,7.1c0,3.6-2.6,6.5-8.1,6.5c-5.8,0-8.1-3.3-8.6-6.6H181.2z"/>
		<path class="st1" d="M202.7,293.7v23.2h-2.4v-23.2H202.7z"/>
		<path class="st1" d="M228.9,306.5c0-4.4,0-8.8,0.1-11.2H229c-1,3.4-5.2,14.2-8,21.5h-2.2c-2.1-5.8-6.5-17.8-7.6-21.5H211
			c0.2,2.7,0.2,7.9,0.2,11.9v9.6H209v-23.2h3.5c2.9,7.6,6.6,17.5,7.4,20.3h0.1c0.5-1.9,4.8-12.9,7.8-20.3h3.5v23.2h-2.3V306.5z"/>
	</g>
</g>
<path class="st2" d="M298,179.6L298,179.6"/>
<path class="st2" d="M198.5,80.2"/>
<path class="st3" d="M99,80.2v198.9h99.5"/>
<path class="st4" d="M298,179.6c0,54.9-44.5,99.5-99.5,99.5"/>
<path class="st5" d="M298,179.6c0-54.9-44.5-99.5-99.5-99.5H99"/>
<path class="st2" d="M198.5,80.2c54.9,0,99.5,44.5,99.5,99.5s-44.5,99.5-99.5,99.5"/>
<path class="st6" d="M198.5,279.1c-54.9,0-99.5-44.5-99.5-99.5s44.5-99.5,99.5-99.5"/>
</svg>
