<?xml version="1.0" encoding="utf-8"?>
<!-- Generator: Adobe Illustrator 25.1.0, SVG Export Plug-In . SVG Version: 6.00 Build 0)  -->
<svg version="1.1"
	 id="svg2" xmlns:cc="http://creativecommons.org/ns#" xmlns:dc="http://purl.org/dc/elements/1.1/" xmlns:inkscape="http://www.inkscape.org/namespaces/inkscape" xmlns:rdf="http://www.w3.org/1999/02/22-rdf-syntax-ns#" xmlns:sodipodi="http://sodipodi.sourceforge.net/DTD/sodipodi-0.dtd" xmlns:svg="http://www.w3.org/2000/svg"
	 xmlns="http://www.w3.org/2000/svg" xmlns:xlink="http://www.w3.org/1999/xlink" x="0px" y="0px" width="16px" height="16px"
	 viewBox="0 0 16 16" style="enable-background:new 0 0 16 16;" xml:space="preserve">
<style type="text/css">
	.st0{fill:#FFF6E9;}
</style>
<sodipodi:namedview  bordercolor="#666666" borderopacity="1.0" id="base" inkscape:current-layer="layer1" inkscape:cx="5.7409883" inkscape:cy="7.8312166" inkscape:document-units="px" inkscape:pageopacity="0.0" inkscape:pageshadow="2" inkscape:window-height="821" inkscape:window-maximized="0" inkscape:window-width="784" inkscape:window-x="0" inkscape:window-y="0" inkscape:zoom="17.537457" pagecolor="#ffffff" showgrid="false">
	</sodipodi:namedview>
<g>
	<path class="st0" d="M10.4,0.8h-6C4.2,1.1,4,1.2,3.7,1.5v0.3C4,2.1,4.2,2.3,4.4,2.5h6c0.3-0.3,0.4-0.4,0.7-0.7V1.5
		C10.9,1.2,10.7,1.1,10.4,0.8z"/>
</g>
<g>
	<path class="st0" d="M10.4,7.1h-6C4.2,7.4,4,7.5,3.7,7.8v0.3C4,8.4,4.2,8.6,4.4,8.9h6c0.3-0.3,0.4-0.4,0.7-0.7V7.8
		C10.9,7.5,10.7,7.4,10.4,7.1z"/>
</g>
<g>
	<path class="st0" d="M12.6,7.1V2.8c-0.3-0.3-0.4-0.4-0.7-0.7h-0.3c-0.3,0.3-0.4,0.4-0.7,0.7v4.3c0.3,0.3,0.4,0.4,0.7,0.7h0.3
		C12.2,7.5,12.4,7.4,12.6,7.1z"/>
</g>
<g>
	<path class="st0" d="M12.6,13.4V9.1c-0.3-0.3-0.4-0.4-0.7-0.7h-0.3c-0.3,0.3-0.4,0.4-0.7,0.7v4.3c0.3,0.3,0.4,0.4,0.7,0.7h0.3
		C12.2,13.8,12.4,13.7,12.6,13.4z"/>
</g>
<g>
	<path class="st0" d="M10.4,13.5h-6c-0.3,0.3-0.4,0.4-0.7,0.7v0.3c0.3,0.3,0.4,0.4,0.7,0.7h6c0.3-0.3,0.4-0.4,0.7-0.7v-0.3
		C10.9,13.9,10.7,13.7,10.4,13.5z"/>
</g>
</svg>
