<?xml version="1.0" encoding="utf-8"?>
<!-- Generator: Adobe Illustrator 25.1.0, SVG Export Plug-In . SVG Version: 6.00 Build 0)  -->
<svg version="1.1"
	 id="svg2" sodipodi:docname="controlledInverter.svg" xmlns:cc="http://creativecommons.org/ns#" xmlns:dc="http://purl.org/dc/elements/1.1/" xmlns:inkscape="http://www.inkscape.org/namespaces/inkscape" xmlns:rdf="http://www.w3.org/1999/02/22-rdf-syntax-ns#" xmlns:sodipodi="http://sodipodi.sourceforge.net/DTD/sodipodi-0.dtd" xmlns:svg="http://www.w3.org/2000/svg"
	 xmlns="http://www.w3.org/2000/svg" xmlns:xlink="http://www.w3.org/1999/xlink" x="0px" y="0px" width="16px" height="16px"
	 viewBox="0 0 16 16" style="enable-background:new 0 0 16 16;" xml:space="preserve">
<style type="text/css">
	.st0{enable-background:new    ;}
	.st1{fill:#FFF6E9;}
</style>
<sodipodi:namedview  bordercolor="#666666" borderopacity="1.0" id="base" inkscape:current-layer="layer1" inkscape:cx="5.8839558" inkscape:cy="7.7490858" inkscape:document-units="px" inkscape:pageopacity="0.0" inkscape:pageshadow="2" inkscape:window-height="821" inkscape:window-maximized="0" inkscape:window-width="784" inkscape:window-x="0" inkscape:window-y="0" inkscape:zoom="17.360249" pagecolor="#ffffff" showgrid="false">
	</sodipodi:namedview>
<g>
	<g class="st0">
		<path class="st1" d="M5.9,7.9c0,1.6-0.5,3.4-2.3,3.4c-1.8,0-2.3-1.6-2.3-3.3c0-1.7,0.5-3.3,2.3-3.3C5.4,4.6,5.9,6.2,5.9,7.9z
			 M2.3,7.9c0,1.2,0.2,2.5,1.3,2.5c1.1,0,1.3-1.3,1.3-2.6c0-1.2-0.2-2.5-1.3-2.5C2.6,5.4,2.3,6.5,2.3,7.9z"/>
		<path class="st1" d="M8.1,11.1V5.8C7.7,6.1,7.1,6.3,6.8,6.4V5.6c0.5-0.1,1.1-0.5,1.6-0.9H9v6.4H8.1z"/>
		<path class="st1" d="M10.4,11.1L10.4,11.1c0-1,0.6-2,1.9-3c1-0.8,1.3-1,1.3-1.7c0-0.6-0.3-1.1-1.1-1.1c-0.8,0-1.1,0.4-1.2,1.1
			h-0.9c0.1-1.1,0.8-1.9,2.1-1.9c1.5,0,2,0.9,2,1.8c0,1-0.4,1.4-1.6,2.3c-0.9,0.7-1.3,1.1-1.5,1.6h3.3l-0.1,0.8H10.4z"/>
	</g>
</g>
</svg>
