<?xml version="1.0" encoding="utf-8"?>
<!-- Generator: Adobe Illustrator 25.1.0, SVG Export Plug-In . SVG Version: 6.00 Build 0)  -->
<svg version="1.1"
	 id="svg2" sodipodi:docname="dFlipFlop.svg" xmlns:cc="http://creativecommons.org/ns#" xmlns:dc="http://purl.org/dc/elements/1.1/" xmlns:inkscape="http://www.inkscape.org/namespaces/inkscape" xmlns:rdf="http://www.w3.org/1999/02/22-rdf-syntax-ns#" xmlns:sodipodi="http://sodipodi.sourceforge.net/DTD/sodipodi-0.dtd" xmlns:svg="http://www.w3.org/2000/svg"
	 xmlns="http://www.w3.org/2000/svg" xmlns:xlink="http://www.w3.org/1999/xlink" x="0px" y="0px" width="16px" height="16px"
	 viewBox="0 0 16 16" style="enable-background:new 0 0 16 16;" xml:space="preserve">
<style type="text/css">
	.st0{enable-background:new    ;}
	.st1{fill:#FFF6E9;}
</style>
<sodipodi:namedview  bordercolor="#666666" borderopacity="1.0" id="base" inkscape:current-layer="layer1" inkscape:cx="5.8839558" inkscape:cy="7.7490858" inkscape:document-units="px" inkscape:pageopacity="0.0" inkscape:pageshadow="2" inkscape:window-height="821" inkscape:window-maximized="0" inkscape:window-width="784" inkscape:window-x="0" inkscape:window-y="0" inkscape:zoom="17.360249" pagecolor="#ffffff" showgrid="false">
	</sodipodi:namedview>
<g id="layer1" transform="translate(0,-1036.3622)" inkscape:groupmode="layer" inkscape:label="Layer 1">
	<g>
		<g class="st0">
			<path class="st1" d="M2.7,1041.2h2.4c1.8,0,3,1.2,3,3.1c0,1.8-1.2,3.2-3.1,3.2H2.7V1041.2z M3.9,1046.6H5c1.3,0,1.9-1,1.9-2.2
				c0-1.1-0.5-2.1-1.9-2.1H3.9V1046.6z"/>
			<path class="st1" d="M10.5,1043.7v3.8H9.3v-3.8H8.6v-0.9h0.7v-0.5c0-0.9,0.4-1.6,1.5-1.6c0.2,0,0.4,0,0.5,0.1v0.9
				c-0.1,0-0.2,0-0.3,0c-0.4,0-0.5,0.2-0.5,0.7v0.5H12v-0.5c0-0.9,0.4-1.6,1.5-1.6c0.2,0,0.4,0,0.5,0.1v0.9c-0.1,0-0.2,0-0.3,0
				c-0.4,0-0.5,0.2-0.5,0.7v0.5H14v0.9h-0.8v3.8H12v-3.8H10.5z"/>
		</g>
	</g>
</g>
</svg>
