<?xml version="1.0" encoding="utf-8"?>
<!-- Generator: Adobe Illustrator 25.1.0, SVG Export Plug-In . SVG Version: 6.00 Build 0)  -->
<svg version="1.1"
	 id="svg2" sodipodi:docname="dff.svg" xmlns:cc="http://creativecommons.org/ns#" xmlns:dc="http://purl.org/dc/elements/1.1/" xmlns:inkscape="http://www.inkscape.org/namespaces/inkscape" xmlns:rdf="http://www.w3.org/1999/02/22-rdf-syntax-ns#" xmlns:sodipodi="http://sodipodi.sourceforge.net/DTD/sodipodi-0.dtd" xmlns:svg="http://www.w3.org/2000/svg"
	 xmlns="http://www.w3.org/2000/svg" xmlns:xlink="http://www.w3.org/1999/xlink" x="0px" y="0px" width="16px" height="16px"
	 viewBox="0 0 16 16" style="enable-background:new 0 0 16 16;" xml:space="preserve">
<style type="text/css">
	.st0{fill:#FFF6E9;}
</style>
<sodipodi:namedview  bordercolor="#666666" borderopacity="1.0" id="base" inkscape:current-layer="layer1" inkscape:cx="5.8839558" inkscape:cy="7.7490858" inkscape:document-units="px" inkscape:pageopacity="0.0" inkscape:pageshadow="2" inkscape:window-height="821" inkscape:window-maximized="0" inkscape:window-width="784" inkscape:window-x="0" inkscape:window-y="0" inkscape:zoom="17.360249" pagecolor="#ffffff" showgrid="false">
	</sodipodi:namedview>
<g>
	<g>
		<path class="st0" d="M7.6,3.8c-0.4,0-0.8,0-1,0.1v5.6c0.2,0,0.5,0,0.8,0c1.9,0,3-1,3-3C10.4,4.8,9.4,3.8,7.6,3.8z"/>
	</g>
	<g>
		<path class="st0" d="M0,0v16l4.4,0l3.5-2.3l3.5,2.3H16V0H0z M10.7,9.6c-0.8,0.7-2,1.1-3.5,1.1c-0.8,0-1.5,0-1.9-0.1V2.8
			c0.6-0.1,1.4-0.2,2.3-0.2C9,2.7,10,3,10.7,3.6c0.8,0.6,1.2,1.6,1.2,2.9C11.9,7.9,11.4,8.9,10.7,9.6z"/>
	</g>
</g>
</svg>
