<?xml version="1.0" encoding="utf-8"?>
<!-- Generator: Adobe Illustrator 25.1.0, SVG Export Plug-In . SVG Version: 6.00 Build 0)  -->
<svg version="1.1"
	 id="svg2" sodipodi:docname="divider.svg" xmlns:cc="http://creativecommons.org/ns#" xmlns:dc="http://purl.org/dc/elements/1.1/" xmlns:inkscape="http://www.inkscape.org/namespaces/inkscape" xmlns:rdf="http://www.w3.org/1999/02/22-rdf-syntax-ns#" xmlns:sodipodi="http://sodipodi.sourceforge.net/DTD/sodipodi-0.dtd" xmlns:svg="http://www.w3.org/2000/svg"
	 xmlns="http://www.w3.org/2000/svg" xmlns:xlink="http://www.w3.org/1999/xlink" x="0px" y="0px" width="16px" height="16px"
	 viewBox="0 0 16 16" style="enable-background:new 0 0 16 16;" xml:space="preserve">
<style type="text/css">
	.st0{fill:#FFF6E9;}
</style>
<sodipodi:namedview  bordercolor="#666666" borderopacity="1.0" id="base" inkscape:current-layer="layer1" inkscape:cx="8.6008325" inkscape:cy="7.7490858" inkscape:document-units="px" inkscape:pageopacity="0.0" inkscape:pageshadow="2" inkscape:window-height="821" inkscape:window-maximized="0" inkscape:window-width="784" inkscape:window-x="0" inkscape:window-y="0" inkscape:zoom="28.461048" pagecolor="#ffffff" showgrid="false">
	</sodipodi:namedview>
<g>
	<path class="st0" d="M7,1v6H1V1H7 M8,0H0v8h8V0L8,0z"/>
</g>
<g>
	<path class="st0" d="M15,1v6H9V1H15 M16,0H8v8h8V0L16,0z"/>
</g>
<g>
	<path class="st0" d="M7,9v6H1V9H7 M8,8H0v8h8V8L8,8z"/>
</g>
<g>
	<path class="st0" d="M15,9v6H9V9H15 M16,8H8v8h8V8L16,8z"/>
</g>
<g>
	<rect x="2.1" y="2.2" class="st0" width="3.6" height="3.6"/>
</g>
<g>
	<rect x="10.2" y="10.2" class="st0" width="3.6" height="3.6"/>
</g>
</svg>
