<?xml version="1.0" encoding="utf-8"?>
<!-- Generator: Adobe Illustrator 25.1.0, SVG Export Plug-In . SVG Version: 6.00 Build 0)  -->
<svg version="1.1"
	 id="svg2" sodipodi:docname="7seg.svg" xmlns:cc="http://creativecommons.org/ns#" xmlns:dc="http://purl.org/dc/elements/1.1/" xmlns:inkscape="http://www.inkscape.org/namespaces/inkscape" xmlns:rdf="http://www.w3.org/1999/02/22-rdf-syntax-ns#" xmlns:sodipodi="http://sodipodi.sourceforge.net/DTD/sodipodi-0.dtd" xmlns:svg="http://www.w3.org/2000/svg"
	 xmlns="http://www.w3.org/2000/svg" xmlns:xlink="http://www.w3.org/1999/xlink" x="0px" y="0px" width="16px" height="16px"
	 viewBox="0 0 16 16" style="enable-background:new 0 0 16 16;" xml:space="preserve">
<style type="text/css">
	.st0{fill:#FFF6E9;}
</style>
<g>
	<path class="st0" d="M10.3,7.1H5.8L5,7.8v0.3L5.8,9h4.5l0.7-0.7V7.8L10.3,7.1z"/>
</g>
<g>
	<path class="st0" d="M12.5,6.9V2.4c-0.3-0.3-0.4-0.4-0.7-0.7h-0.3c-0.3,0.3-0.4,0.4-0.7,0.7v4.5c0.3,0.3,0.4,0.4,0.7,0.7h0.3
		C12.1,7.4,12.3,7.3,12.5,6.9z"/>
</g>
<g>
	<path class="st0" d="M12.5,13.6V9.1c-0.3-0.3-0.4-0.4-0.7-0.7h-0.3c-0.3,0.3-0.4,0.4-0.7,0.7v4.5c0.3,0.3,0.4,0.4,0.7,0.7h0.3
		C12.1,14,12.3,13.9,12.5,13.6z"/>
</g>
<g>
	<path class="st0" d="M5.3,6.8V2.3C4.9,2,4.8,1.9,4.5,1.6H4.2C3.9,1.9,3.8,2,3.5,2.3v4.5c0.3,0.3,0.4,0.4,0.7,0.7h0.3
		C4.8,7.3,5,7.2,5.3,6.8z"/>
</g>
<g>
	<path class="st0" d="M5.3,13.5V9C4.9,8.6,4.8,8.5,4.5,8.2H4.2C3.9,8.5,3.8,8.6,3.5,9v4.5c0.3,0.3,0.4,0.4,0.7,0.7h0.3
		C4.8,13.9,5,13.8,5.3,13.5z"/>
</g>
</svg>
