<?xml version="1.0" encoding="utf-8"?>
<!-- Generator: Adobe Illustrator 25.1.0, SVG Export Plug-In . SVG Version: 6.00 Build 0)  -->
<svg version="1.1"
	 id="svg2" sodipodi:docname="hexdig.svg" xmlns:cc="http://creativecommons.org/ns#" xmlns:dc="http://purl.org/dc/elements/1.1/" xmlns:inkscape="http://www.inkscape.org/namespaces/inkscape" xmlns:rdf="http://www.w3.org/1999/02/22-rdf-syntax-ns#" xmlns:sodipodi="http://sodipodi.sourceforge.net/DTD/sodipodi-0.dtd" xmlns:svg="http://www.w3.org/2000/svg"
	 xmlns="http://www.w3.org/2000/svg" xmlns:xlink="http://www.w3.org/1999/xlink" x="0px" y="0px" width="16px" height="16px"
	 viewBox="0 0 16 16" style="enable-background:new 0 0 16 16;" xml:space="preserve">
<style type="text/css">
	.st0{fill:#FFF6E9;}
</style>
<sodipodi:namedview  bordercolor="#666666" borderopacity="1.0" id="base" inkscape:current-layer="layer1" inkscape:cx="7.7016049" inkscape:cy="7.8312166" inkscape:document-units="px" inkscape:pageopacity="0.0" inkscape:pageshadow="2" inkscape:window-height="821" inkscape:window-maximized="0" inkscape:window-width="784" inkscape:window-x="0" inkscape:window-y="0" inkscape:zoom="31.1959" pagecolor="#ffffff" showgrid="false">
	</sodipodi:namedview>
<g>
	<path class="st0" d="M0,0v16l4.4,0l3.5-2.3l3.5,2.3H16V0H0z M6.1,8.1c0,2.2-1.1,2.9-2.6,2.9c-0.4,0-0.9-0.1-1.2-0.2l0.2-1.2
		C2.7,9.7,3,9.8,3.4,9.8c0.8,0,1.3-0.4,1.3-1.7V2.9h1.4V8.1z M12.1,10.8L9.9,7.2L9.1,8.1v2.8H7.7V2.9h1.4v3.6h0
		C9.4,6.3,9.6,6,9.8,5.7l2.1-2.8h1.8l-2.7,3.4l2.9,4.5H12.1z"/>
</g>
</svg>
