<?xml version="1.0" encoding="utf-8"?>
<!-- Generator: Adobe Illustrator 25.1.0, SVG Export Plug-In . SVG Version: 6.00 Build 0)  -->
<svg version="1.1"
	 id="svg2" sodipodi:docname="joystick.svg" xmlns:cc="http://creativecommons.org/ns#" xmlns:dc="http://purl.org/dc/elements/1.1/" xmlns:inkscape="http://www.inkscape.org/namespaces/inkscape" xmlns:rdf="http://www.w3.org/1999/02/22-rdf-syntax-ns#" xmlns:sodipodi="http://sodipodi.sourceforge.net/DTD/sodipodi-0.dtd" xmlns:svg="http://www.w3.org/2000/svg"
	 xmlns="http://www.w3.org/2000/svg" xmlns:xlink="http://www.w3.org/1999/xlink" x="0px" y="0px" width="16px" height="16px"
	 viewBox="0 0 16 16" style="enable-background:new 0 0 16 16;" xml:space="preserve">
<style type="text/css">
	.st0{fill:#FFF6E9;}
</style>
<sodipodi:namedview  bordercolor="#666666" borderopacity="1.0" id="base" inkscape:current-layer="layer1" inkscape:cx="8.1278836" inkscape:cy="10.30067" inkscape:document-units="px" inkscape:pageopacity="0.0" inkscape:pageshadow="2" inkscape:window-height="821" inkscape:window-maximized="0" inkscape:window-width="784" inkscape:window-x="0" inkscape:window-y="0" inkscape:zoom="31.1959" pagecolor="#ffffff" showgrid="false">
	</sodipodi:namedview>
<path class="st0" d="M13,0H3C1.3,0,0,1.3,0,3v10c0,1.7,1.3,3,3,3h10c1.7,0,3-1.3,3-3V3C16,1.3,14.7,0,13,0z M9,8.9V13H7V8.9
	C5.6,8.5,4.6,7.2,4.6,5.7c0-1.9,1.5-3.4,3.4-3.4s3.4,1.5,3.4,3.4C11.4,7.2,10.4,8.5,9,8.9z"/>
</svg>
