<?xml version="1.0" encoding="utf-8"?>
<!-- Generator: Adobe Illustrator 25.1.0, SVG Export Plug-In . SVG Version: 6.00 Build 0)  -->
<svg version="1.1"
	 id="svg2" sodipodi:docname="joystick.svg" xmlns:cc="http://creativecommons.org/ns#" xmlns:dc="http://purl.org/dc/elements/1.1/" xmlns:inkscape="http://www.inkscape.org/namespaces/inkscape" xmlns:rdf="http://www.w3.org/1999/02/22-rdf-syntax-ns#" xmlns:sodipodi="http://sodipodi.sourceforge.net/DTD/sodipodi-0.dtd" xmlns:svg="http://www.w3.org/2000/svg"
	 xmlns="http://www.w3.org/2000/svg" xmlns:xlink="http://www.w3.org/1999/xlink" x="0px" y="0px" width="16px" height="16px"
	 viewBox="0 0 16 16" style="enable-background:new 0 0 16 16;" xml:space="preserve">
<style type="text/css">
	.st0{fill:#FFF6E9;}
</style>
<sodipodi:namedview  bordercolor="#666666" borderopacity="1.0" id="base" inkscape:current-layer="layer1" inkscape:cx="5.2481754" inkscape:cy="10.238292" inkscape:document-units="px" inkscape:pageopacity="0.0" inkscape:pageshadow="2" inkscape:window-height="821" inkscape:window-maximized="0" inkscape:window-width="784" inkscape:window-x="0" inkscape:window-y="0" inkscape:zoom="16.082359" pagecolor="#ffffff" showgrid="false">
	</sodipodi:namedview>
<path class="st0" d="M13,0H3C1.3,0,0,1.3,0,3v10c0,1.7,1.3,3,3,3h10c1.7,0,3-1.3,3-3V3C16,1.3,14.7,0,13,0z M13.3,11.3
	c0,1.1-0.9,2-2,2H4.7c-1.1,0-2-0.9-2-2V4.7c0-1.1,0.9-2,2-2h6.6c1.1,0,2,0.9,2,2V11.3z"/>
<path class="st0" d="M9.8,5.1H6.2c-0.6,0-1.1,0.5-1.1,1.1v3.7c0,0.6,0.5,1.1,1.1,1.1h3.7c0.6,0,1.1-0.5,1.1-1.1V6.2
	C10.9,5.5,10.5,5.1,9.8,5.1z"/>
</svg>
