<?xml version="1.0" encoding="utf-8"?>
<!-- Generator: Adobe Illustrator 25.1.0, SVG Export Plug-In . SVG Version: 6.00 Build 0)  -->
<svg version="1.1"
	 id="svg2" sodipodi:docname="led.svg" xmlns:cc="http://creativecommons.org/ns#" xmlns:dc="http://purl.org/dc/elements/1.1/" xmlns:inkscape="http://www.inkscape.org/namespaces/inkscape" xmlns:rdf="http://www.w3.org/1999/02/22-rdf-syntax-ns#" xmlns:sodipodi="http://sodipodi.sourceforge.net/DTD/sodipodi-0.dtd" xmlns:svg="http://www.w3.org/2000/svg"
	 xmlns="http://www.w3.org/2000/svg" xmlns:xlink="http://www.w3.org/1999/xlink" x="0px" y="0px" width="16px" height="16px"
	 viewBox="0 0 16 16" style="enable-background:new 0 0 16 16;" xml:space="preserve">
<style type="text/css">
	.st0{fill:#FFF6E9;}
	.st1{fill:none;stroke:#FFF6E9;stroke-width:1.25;stroke-miterlimit:10;}
</style>
<sodipodi:namedview  bordercolor="#666666" borderopacity="1.0" id="base" inkscape:current-layer="layer1" inkscape:cx="8.0420859" inkscape:cy="8.2066498" inkscape:document-units="px" inkscape:pageopacity="0.0" inkscape:pageshadow="2" inkscape:window-height="423" inkscape:window-maximized="0" inkscape:window-width="708" inkscape:window-x="130" inkscape:window-y="130" inkscape:zoom="10.685383" pagecolor="#ffffff" showgrid="false">
	</sodipodi:namedview>
<rect x="5.6" y="11.6" class="st0" width="4.9" height="4.4"/>
<path class="st0" d="M8,0C4.7,0,2.1,2.7,2.1,5.9s2.7,7.7,5.9,7.7s5.9-4.4,5.9-7.7S11.3,0,8,0z M8,9.7C6,9.7,4.5,8,4.5,6.2
	c0-2,1.6-3.5,3.5-3.5s3.5,1.6,3.5,3.5S10,9.7,8,9.7z"/>
<polyline class="st1" points="3.7,6.2 6.8,7 8,5.8 9.1,6.9 12.3,6.2 "/>
</svg>
