<?xml version="1.0" encoding="utf-8"?>
<!-- Generator: Adobe Illustrator 25.1.0, SVG Export Plug-In . SVG Version: 6.00 Build 0)  -->
<svg version="1.1"
	 id="svg2" xmlns:cc="http://creativecommons.org/ns#" xmlns:dc="http://purl.org/dc/elements/1.1/" xmlns:inkscape="http://www.inkscape.org/namespaces/inkscape" xmlns:rdf="http://www.w3.org/1999/02/22-rdf-syntax-ns#" xmlns:sodipodi="http://sodipodi.sourceforge.net/DTD/sodipodi-0.dtd" xmlns:svg="http://www.w3.org/2000/svg"
	 xmlns="http://www.w3.org/2000/svg" xmlns:xlink="http://www.w3.org/1999/xlink" x="0px" y="0px" width="16px" height="16px"
	 viewBox="0 0 16 16" style="enable-background:new 0 0 16 16;" xml:space="preserve">
<style type="text/css">
	.st0{fill:#FFF6E9;}
</style>
<sodipodi:namedview  bordercolor="#666666" borderopacity="1.0" id="base" inkscape:current-layer="layer1" inkscape:cx="7.0276715" inkscape:cy="7.4864449" inkscape:document-units="px" inkscape:pageopacity="0.0" inkscape:pageshadow="2" inkscape:window-height="837" inkscape:window-maximized="1" inkscape:window-width="1600" inkscape:window-x="-8" inkscape:window-y="-8" inkscape:zoom="34.121017" pagecolor="#ffffff" showgrid="false">
	</sodipodi:namedview>
<g id="layer1" transform="translate(0,-1036.3622)" inkscape:groupmode="layer" inkscape:label="Layer 1">
	<path id="path3003" inkscape:connector-curvature="0" sodipodi:nodetypes="caaacsasaccccssscssac" class="st0" d="M4.1,1052.4
		c0,0-0.8-2.8-1.6-4.2c-0.4-0.7-1.7-1.1-1.5-1.8c0.2-0.7,1.5-0.9,2.2-0.6c1.2,0.4,2.1,3.2,2.1,3.2s0.1-6.6,0-11.1
		c0-0.4,0.2-0.7,0.5-0.8c0.3-0.2,0.7-0.1,0.9-0.1c0.3,0,0.5,0.1,0.6,0.2c0.2,0.2,0.3,0.8,0.3,0.8l0.1,6.9c0,0,0-1.7,0.1-2.3
		c0.1-0.6,1.9-0.5,2.2,0.1c0.2,0.7,0.1,3,0.1,2.2c0-0.7-0.1-1.2,0-2.1c0.1-0.6,1.6-0.5,1.9-0.1c0.3,0.4,0.1,3.4,0.1,3.4s0-1.3,0-2.8
		c0-0.5,1.9-0.4,1.9,0.2c0.1,2.4,0.3,3.6,0.1,5.3c-0.1,1.3-0.8,3.6-0.8,3.6"/>
</g>
</svg>
