<?xml version="1.0" encoding="utf-8"?>
<!-- Generator: Adobe Illustrator 25.1.0, SVG Export Plug-In . SVG Version: 6.00 Build 0)  -->
<svg version="1.1"
	 id="svg2" sodipodi:docname="power.svg" xmlns:cc="http://creativecommons.org/ns#" xmlns:dc="http://purl.org/dc/elements/1.1/" xmlns:inkscape="http://www.inkscape.org/namespaces/inkscape" xmlns:rdf="http://www.w3.org/1999/02/22-rdf-syntax-ns#" xmlns:sodipodi="http://sodipodi.sourceforge.net/DTD/sodipodi-0.dtd" xmlns:svg="http://www.w3.org/2000/svg"
	 xmlns="http://www.w3.org/2000/svg" xmlns:xlink="http://www.w3.org/1999/xlink" x="0px" y="0px" width="16px" height="16px"
	 viewBox="0 0 16 16" style="enable-background:new 0 0 16 16;" xml:space="preserve">
<style type="text/css">
	.st0{enable-background:new    ;}
	.st1{fill:#FFF6E9;}
</style>
<sodipodi:namedview  bordercolor="#666666" borderopacity="1.0" id="base" inkscape:current-layer="layer1" inkscape:cx="7.3077861" inkscape:cy="7.4847381" inkscape:document-units="px" inkscape:pageopacity="0.0" inkscape:pageshadow="2" inkscape:window-height="821" inkscape:window-maximized="0" inkscape:window-width="784" inkscape:window-x="0" inkscape:window-y="0" inkscape:zoom="26.070765" pagecolor="#ffffff" showgrid="false">
	</sodipodi:namedview>
<g id="layer1" transform="translate(0,-1036.3622)" inkscape:groupmode="layer" inkscape:label="Layer 1">
	<g>
		<g class="st0">
			<path class="st1" d="M2.4,1040.7h2.8c1.4,0,2.4,0.8,2.4,2.1c0,1.4-1.1,2.1-2.4,2.1H3.7v2.7H2.4V1040.7z M3.7,1043.9H5
				c0.8,0,1.3-0.3,1.3-1.1c0-0.8-0.5-1.1-1.2-1.1H3.7V1043.9z"/>
			<path class="st1" d="M8.7,1043.9c0-0.6,0-1,0-1.4h1.2c0,0.1,0,0.6,0,1c0.2-0.6,0.8-1.1,1.7-1.1v1.2c-1,0-1.7,0.4-1.7,1.7v2.3H8.7
				V1043.9z"/>
			<path class="st1" d="M12.5,1040.3h1.2v1.2h-1.2V1040.3z M12.5,1042.5h1.2v5.1h-1.2V1042.5z"/>
		</g>
	</g>
</g>
</svg>
