<?xml version="1.0" encoding="utf-8"?>
<!-- Generator: Adobe Illustrator 25.1.0, SVG Export Plug-In . SVG Version: 6.00 Build 0)  -->
<svg version="1.1"
	 id="svg2" sodipodi:docname="register.svg" xmlns:cc="http://creativecommons.org/ns#" xmlns:dc="http://purl.org/dc/elements/1.1/" xmlns:inkscape="http://www.inkscape.org/namespaces/inkscape" xmlns:rdf="http://www.w3.org/1999/02/22-rdf-syntax-ns#" xmlns:sodipodi="http://sodipodi.sourceforge.net/DTD/sodipodi-0.dtd" xmlns:svg="http://www.w3.org/2000/svg"
	 xmlns="http://www.w3.org/2000/svg" xmlns:xlink="http://www.w3.org/1999/xlink" x="0px" y="0px" width="16px" height="16px"
	 viewBox="0 0 16 16" style="enable-background:new 0 0 16 16;" xml:space="preserve">
<style type="text/css">
	.st0{fill:#FFF6E9;}
</style>
<sodipodi:namedview  bordercolor="#666666" borderopacity="1.0" id="base" inkscape:current-layer="layer1" inkscape:cx="8.4935373" inkscape:cy="11.296017" inkscape:document-units="px" inkscape:guide-bbox="true" inkscape:pageopacity="0.0" inkscape:pageshadow="2" inkscape:window-height="821" inkscape:window-maximized="0" inkscape:window-width="784" inkscape:window-x="0" inkscape:window-y="0" inkscape:zoom="58.331155" pagecolor="#ffffff" showgrid="false" showguides="true">
	</sodipodi:namedview>
<rect class="st0" width="8" height="8"/>
<g>
	<g>
		<path class="st0" d="M9.1,6.8c0.6-0.1,1.4-0.2,2.2-0.2c1.2,0,1.9,0.2,2.5,0.7c0.4,0.4,0.7,0.9,0.7,1.6c0,1-0.7,1.8-1.5,2v0
			c0.6,0.2,0.9,0.8,1.1,1.6c0.3,1,0.5,1.9,0.6,2.3h-1.5c-0.1-0.2-0.3-0.9-0.5-1.9c-0.2-1.1-0.6-1.4-1.5-1.4h-0.7v3.3H9.1V6.8z
			 M10.6,10.4h0.9c1,0,1.6-0.5,1.6-1.3c0-0.9-0.6-1.3-1.6-1.3c-0.5,0-0.8,0-0.9,0.1V10.4z"/>
	</g>
</g>
</svg>
