<?xml version="1.0" encoding="utf-8"?>
<!-- Generator: Adobe Illustrator 25.1.0, SVG Export Plug-In . SVG Version: 6.00 Build 0)  -->
<svg version="1.1"
	 id="svg2" sodipodi:docname="ram.svg" xmlns:cc="http://creativecommons.org/ns#" xmlns:dc="http://purl.org/dc/elements/1.1/" xmlns:inkscape="http://www.inkscape.org/namespaces/inkscape" xmlns:rdf="http://www.w3.org/1999/02/22-rdf-syntax-ns#" xmlns:sodipodi="http://sodipodi.sourceforge.net/DTD/sodipodi-0.dtd" xmlns:svg="http://www.w3.org/2000/svg"
	 xmlns="http://www.w3.org/2000/svg" xmlns:xlink="http://www.w3.org/1999/xlink" x="0px" y="0px" width="16px" height="16px"
	 viewBox="0 0 16 16" style="enable-background:new 0 0 16 16;" xml:space="preserve">
<style type="text/css">
	.st0{enable-background:new    ;}
	.st1{fill:#FFF6E9;}
</style>
<sodipodi:namedview  bordercolor="#666666" borderopacity="1.0" id="base" inkscape:current-layer="layer1" inkscape:cx="10.344756" inkscape:cy="8.0184504" inkscape:document-units="px" inkscape:guide-bbox="true" inkscape:pageopacity="0.0" inkscape:pageshadow="2" inkscape:window-height="821" inkscape:window-maximized="0" inkscape:window-width="784" inkscape:window-x="0" inkscape:window-y="0" inkscape:zoom="20.623178" pagecolor="#ffffff" showgrid="false" showguides="true">
	</sodipodi:namedview>
<g id="layer1" transform="translate(0,-1036.3622)" inkscape:groupmode="layer" inkscape:label="Layer 1">
	<g>
		<g class="st0">
			<path class="st1" d="M2.4,1044.5v1.7H1.6v-4.1h1.8c0.9,0,1.4,0.5,1.4,1.1c0,0.6-0.3,0.9-0.6,1c0.3,0.1,0.6,0.3,0.6,1v0.2
				c0,0.3,0,0.6,0.1,0.8H4c-0.1-0.2-0.1-0.5-0.1-0.9v-0.1c0-0.5-0.1-0.7-0.8-0.7H2.4z M2.4,1043.9h0.8c0.5,0,0.8-0.2,0.8-0.6
				c0-0.4-0.2-0.6-0.7-0.6H2.4V1043.9z"/>
			<path class="st1" d="M9.3,1044.2c0,1.1-0.7,2.2-2,2.2c-1.3,0-2-0.9-2-2.1c0-1.2,0.7-2.1,2-2.1C8.6,1042,9.3,1042.9,9.3,1044.2z
				 M6.1,1044.2c0,0.8,0.4,1.5,1.2,1.5c0.9,0,1.2-0.7,1.2-1.5c0-0.8-0.4-1.5-1.2-1.5C6.5,1042.7,6.1,1043.3,6.1,1044.2z"/>
			<path class="st1" d="M13.6,1044.6c0-0.7,0-1.5,0-2h0c-0.2,0.8-0.7,2.3-1.1,3.6h-0.7c-0.3-1.1-0.8-2.8-1-3.6h0c0,0.5,0,1.4,0,2.1
				v1.5h-0.7v-4.1h1.2c0.4,1.2,0.8,2.6,0.9,3.2h0c0.1-0.5,0.6-2.1,1-3.2h1.1v4.1h-0.8V1044.6z"/>
		</g>
	</g>
</g>
</svg>
