<?xml version="1.0" encoding="utf-8"?>
<!-- Generator: Adobe Illustrator 25.1.0, SVG Export Plug-In . SVG Version: 6.00 Build 0)  -->
<svg version="1.1"
	 id="svg2" sodipodi:docname="splitter.svg" xmlns:cc="http://creativecommons.org/ns#" xmlns:dc="http://purl.org/dc/elements/1.1/" xmlns:inkscape="http://www.inkscape.org/namespaces/inkscape" xmlns:rdf="http://www.w3.org/1999/02/22-rdf-syntax-ns#" xmlns:sodipodi="http://sodipodi.sourceforge.net/DTD/sodipodi-0.dtd" xmlns:svg="http://www.w3.org/2000/svg"
	 xmlns="http://www.w3.org/2000/svg" xmlns:xlink="http://www.w3.org/1999/xlink" x="0px" y="0px" width="16px" height="16px"
	 viewBox="0 0 16 16" style="enable-background:new 0 0 16 16;" xml:space="preserve">
<style type="text/css">
	.st0{fill:#FFF6E9;}
</style>
<sodipodi:namedview  bordercolor="#666666" borderopacity="1.0" id="base" inkscape:current-layer="layer1" inkscape:cx="9.1384582" inkscape:cy="6.0033364" inkscape:document-units="px" inkscape:guide-bbox="true" inkscape:pageopacity="0.0" inkscape:pageshadow="2" inkscape:window-height="821" inkscape:window-maximized="0" inkscape:window-width="784" inkscape:window-x="0" inkscape:window-y="0" inkscape:zoom="23.18754" pagecolor="#ffffff" showgrid="false" showguides="true">
	</sodipodi:namedview>
<g>
	<g>
		<path class="st0" d="M11.2,4.2H9.9v1.8h1.2c0.8,0,1.2-0.3,1.2-0.9C12.3,4.6,11.9,4.2,11.2,4.2z"/>
	</g>
	<g>
		<path class="st0" d="M0,0v16l4.4,0l3.5-2.3l3.5,2.3H16V0H0z M5.1,9.8C3.4,9.8,2.6,9,2.5,7.9h1.2c0.2,0.7,0.6,1,1.5,1
			C6,8.9,6.3,8.5,6.3,8c0-0.6-0.3-0.8-1.5-1.1C3.2,6.5,2.7,5.9,2.7,5c0-1.1,0.8-1.8,2.3-1.8c1.7,0,2.3,0.9,2.4,1.8H6.2
			C6.1,4.5,5.8,4.1,5,4.1c-0.6,0-1,0.3-1,0.8c0,0.5,0.3,0.7,1.4,1c1.9,0.4,2.2,1.1,2.2,2C7.6,9,6.7,9.8,5.1,9.8z M13.4,8.2v0.3
			c0,0.4,0,1,0.1,1.2h-1.2c-0.1-0.3-0.1-0.8-0.1-1.4V8.2C12.2,7.4,12,7,10.9,7H9.9v2.7H8.7V3.3h2.7c1.4,0,2.1,0.8,2.1,1.8
			c0,0.9-0.5,1.3-1,1.5C12.9,6.7,13.4,7,13.4,8.2z"/>
	</g>
</g>
</svg>
