<?xml version="1.0" encoding="utf-8"?>
<!-- Generator: Adobe Illustrator 25.1.0, SVG Export Plug-In . SVG Version: 6.00 Build 0)  -->
<svg version="1.1"
	 id="svg2" sodipodi:docname="transmis.svg" xmlns:cc="http://creativecommons.org/ns#" xmlns:dc="http://purl.org/dc/elements/1.1/" xmlns:inkscape="http://www.inkscape.org/namespaces/inkscape" xmlns:rdf="http://www.w3.org/1999/02/22-rdf-syntax-ns#" xmlns:sodipodi="http://sodipodi.sourceforge.net/DTD/sodipodi-0.dtd" xmlns:svg="http://www.w3.org/2000/svg"
	 xmlns="http://www.w3.org/2000/svg" xmlns:xlink="http://www.w3.org/1999/xlink" x="0px" y="0px" width="16px" height="16px"
	 viewBox="0 0 16 16" style="enable-background:new 0 0 16 16;" xml:space="preserve">
<style type="text/css">
	.st0{enable-background:new    ;}
	.st1{fill:#FFF6E9;}
</style>
<sodipodi:namedview  bordercolor="#666666" borderopacity="1.0" id="base" inkscape:current-layer="layer1" inkscape:cx="9.1384582" inkscape:cy="10.67037" inkscape:document-units="px" inkscape:guide-bbox="true" inkscape:pageopacity="0.0" inkscape:pageshadow="2" inkscape:window-height="821" inkscape:window-maximized="0" inkscape:window-width="784" inkscape:window-x="0" inkscape:window-y="0" inkscape:zoom="23.18754" pagecolor="#ffffff" showgrid="false" showguides="true">
	</sodipodi:namedview>
<g id="layer1" transform="translate(0,-1036.3622)" inkscape:groupmode="layer" inkscape:label="Layer 1">
	<g>
		<g class="st0">
			<path class="st1" d="M1.9,1042h0.9v-1.5H4v1.5h1.1v1H4v2.8c0,0.4,0.1,0.6,0.6,0.6c0.1,0,0.3,0,0.4,0v0.9
				c-0.3,0.1-0.6,0.1-0.9,0.1c-1,0-1.3-0.5-1.3-1.4v-3H1.9V1042z"/>
			<path class="st1" d="M5.5,1042h0.9v-1.5h1.3v1.5h1.1v1H7.7v2.8c0,0.4,0.1,0.6,0.6,0.6c0.1,0,0.3,0,0.4,0v0.9
				c-0.3,0.1-0.6,0.1-0.9,0.1c-1,0-1.3-0.5-1.3-1.4v-3H5.5V1042z"/>
			<path class="st1" d="M10.5,1042c0.7,2.1,1.1,3.7,1.2,4.2h0c0.1-0.6,0.5-1.8,1.2-4.2h1.3l-1.8,5.6c-0.5,1.6-0.9,2-2.2,2
				c-0.1,0-0.4,0-0.7,0v-1.1c0.1,0,0.3,0,0.4,0c0.6,0,0.9-0.2,1.1-0.9l-2-5.5H10.5z"/>
		</g>
	</g>
</g>
</svg>
